<svg width="20" height="17" viewBox="0 0 20 17" fill="none" xmlns="http://www.w3.org/2000/svg">
<path fill-rule="evenodd" clip-rule="evenodd" d="M0.000105763 13C0.000101889 13 9.5384e-05 13 8.89537e-05 13C8.28644e-05 13 7.68445e-05 13 7.08939e-05 13C5.41836e-05 13 4.71585e-05 13 6.27508e-05 13C7.11685e-05 12.9999 7.39996e-05 12.9999 6.85778e-05 12.9999C5.12119e-05 12.9999 3.3846e-05 12.9999 1.64801e-05 12.9999C-1.56842e-05 12.9998 1.04082e-06 12.9998 5.09323e-05 12.9997L2.13669 12.0501C2.45005 11.9108 2.53312 11.5037 2.31831 11.2364C-0.187104 8.11862 -0.387494 3.94534 1.56094 0.671305C1.75018 0.353305 2.20721 0.379487 2.40721 0.690836C3.58371 2.52234 5.41393 4.14475 7.41015 4.82741C7.71024 4.93003 8.00858 4.70142 8.04946 4.38692C8.38352 1.81727 10.2671 0 13 0C14.8829 0 16.0382 0.673854 16.8464 1.77879C16.9457 1.91447 17.1011 2 17.2692 2H19.0657C19.465 2 19.7032 2.44507 19.4817 2.77735L18.0839 4.87404C18.0292 4.95617 18.0001 5.05372 17.9993 5.15243C17.9415 12.0724 13.949 16.9998 6.99995 16.9998C3.0001 16.9998 1.39674 14.9121 0.000105763 13Z" fill="#1D63FF"/>
</svg>
