<svg width="18" height="18" viewBox="0 0 18 18" fill="none" xmlns="http://www.w3.org/2000/svg">
<path d="M17.8703 17.8756V17.8748H17.8748V11.3192C17.8748 8.11208 17.1843 5.6416 13.435 5.6416C11.6326 5.6416 10.4231 6.63069 9.9293 7.56838H9.87717V5.94101H6.32227V17.8748H10.0239V11.9656C10.0239 10.4098 10.3188 8.90529 12.2456 8.90529C14.1441 8.90529 14.1724 10.6809 14.1724 12.0654V17.8756H17.8703Z" fill="#1D63FF"/>
<path d="M0.294922 5.94141H4.00102V17.8752H0.294922V5.94141Z" fill="#1D63FF"/>
<path d="M2.1465 0C0.961529 0 0 0.961529 0 2.1465C0 3.33146 0.961529 4.3131 2.1465 4.3131C3.33146 4.3131 4.29299 3.33146 4.29299 2.1465C4.29225 0.961529 3.33072 0 2.1465 0V0Z" fill="#1D63FF"/>
</svg>
