<svg width="1280" height="720" viewBox="0 0 1280 720" fill="none" xmlns="http://www.w3.org/2000/svg">
<g clip-path="url(#clip0_902_302)">
<rect width="1280" height="720" fill="#181E25"/>
<path d="M0 520H1280" stroke="#323B48"/>
<path d="M492.128 361.799V342.503H484.608V339.847H502.752V342.503H495.168V361.799H492.128ZM509.772 362.183C508.108 362.183 506.7 361.873 505.548 361.255C504.417 360.615 503.553 359.644 502.956 358.343C502.38 357.041 502.092 355.388 502.092 353.383C502.092 351.356 502.38 349.703 502.956 348.423C503.553 347.121 504.428 346.161 505.58 345.543C506.732 344.903 508.172 344.583 509.9 344.583C511.478 344.583 512.801 344.892 513.868 345.511C514.934 346.108 515.734 347.015 516.268 348.231C516.822 349.425 517.1 350.929 517.1 352.743V354.087H505.004C505.046 355.431 505.238 356.54 505.58 357.415C505.942 358.268 506.476 358.897 507.18 359.303C507.884 359.687 508.769 359.879 509.836 359.879C510.561 359.879 511.19 359.793 511.724 359.623C512.278 359.431 512.737 359.164 513.1 358.823C513.484 358.481 513.772 358.076 513.964 357.607C514.156 357.137 514.262 356.625 514.284 356.071H517.036C517.014 356.967 516.844 357.799 516.524 358.567C516.204 359.313 515.734 359.953 515.116 360.487C514.497 361.02 513.74 361.436 512.844 361.735C511.948 362.033 510.924 362.183 509.772 362.183ZM505.068 351.975H514.188C514.188 351.036 514.081 350.247 513.868 349.607C513.654 348.967 513.345 348.444 512.94 348.039C512.556 347.633 512.097 347.345 511.564 347.175C511.052 346.983 510.465 346.887 509.804 346.887C508.822 346.887 507.99 347.068 507.308 347.431C506.625 347.793 506.102 348.348 505.74 349.095C505.377 349.841 505.153 350.801 505.068 351.975ZM520.583 361.799V344.967H522.855L523.111 347.495H523.335C523.762 346.812 524.242 346.257 524.775 345.831C525.308 345.404 525.895 345.095 526.535 344.903C527.175 344.689 527.868 344.583 528.615 344.583C529.703 344.583 530.642 344.807 531.431 345.255C532.22 345.681 532.807 346.428 533.191 347.495H533.383C533.788 346.812 534.258 346.268 534.791 345.863C535.324 345.436 535.922 345.116 536.583 344.903C537.244 344.689 537.948 344.583 538.695 344.583C539.719 344.583 540.615 344.764 541.383 345.127C542.151 345.468 542.748 346.044 543.175 346.855C543.623 347.644 543.847 348.711 543.847 350.055V361.799H541.031V350.503C541.031 349.82 540.946 349.255 540.775 348.807C540.626 348.359 540.402 348.017 540.103 347.783C539.804 347.527 539.452 347.345 539.047 347.239C538.663 347.132 538.247 347.079 537.799 347.079C537.052 347.079 536.359 347.271 535.719 347.655C535.1 348.039 534.599 348.593 534.215 349.319C533.831 350.044 533.639 350.908 533.639 351.911V361.799H530.823V350.503C530.823 349.82 530.738 349.255 530.567 348.807C530.396 348.359 530.172 348.017 529.895 347.783C529.618 347.527 529.276 347.345 528.871 347.239C528.487 347.132 528.082 347.079 527.655 347.079C526.887 347.079 526.172 347.271 525.511 347.655C524.871 348.039 524.359 348.593 523.975 349.319C523.591 350.044 523.399 350.908 523.399 351.911V361.799H520.583ZM548.114 367.335V344.967H550.354L550.642 347.367H550.866C551.442 346.428 552.178 345.735 553.074 345.287C553.97 344.817 554.984 344.583 556.114 344.583C557.522 344.583 558.717 344.892 559.698 345.511C560.68 346.129 561.437 347.1 561.97 348.423C562.504 349.724 562.77 351.42 562.77 353.511C562.77 355.473 562.493 357.105 561.938 358.407C561.405 359.687 560.648 360.636 559.666 361.255C558.685 361.873 557.544 362.183 556.242 362.183C555.517 362.183 554.834 362.097 554.194 361.927C553.554 361.756 552.978 361.489 552.466 361.127C551.954 360.743 551.506 360.263 551.122 359.687H550.93V367.335H548.114ZM555.346 359.719C556.392 359.719 557.245 359.516 557.906 359.111C558.568 358.684 559.058 358.033 559.378 357.159C559.698 356.263 559.858 355.121 559.858 353.735V353.063C559.858 351.591 559.688 350.417 559.346 349.543C559.005 348.647 558.504 348.007 557.842 347.623C557.202 347.239 556.402 347.047 555.442 347.047C554.397 347.047 553.533 347.281 552.85 347.751C552.189 348.199 551.698 348.881 551.378 349.799C551.08 350.716 550.93 351.836 550.93 353.159V353.639C550.93 354.812 551.037 355.793 551.25 356.583C551.485 357.351 551.805 357.969 552.21 358.439C552.637 358.908 553.117 359.239 553.65 359.431C554.184 359.623 554.749 359.719 555.346 359.719ZM566.271 361.799V338.663H569.087V361.799H566.271ZM577.682 362.183C577.063 362.183 576.445 362.108 575.826 361.959C575.207 361.809 574.631 361.564 574.098 361.223C573.565 360.881 573.138 360.412 572.818 359.815C572.498 359.196 572.338 358.428 572.338 357.511C572.338 356.359 572.615 355.409 573.17 354.663C573.725 353.916 574.493 353.34 575.474 352.935C576.477 352.508 577.661 352.22 579.026 352.071C580.391 351.9 581.874 351.815 583.474 351.815V349.895C583.474 349.276 583.367 348.743 583.154 348.295C582.941 347.847 582.557 347.505 582.002 347.271C581.469 347.015 580.701 346.887 579.698 346.887C578.738 346.887 577.97 347.015 577.394 347.271C576.839 347.505 576.445 347.815 576.21 348.199C575.997 348.583 575.89 349.009 575.89 349.479V349.959H573.17C573.149 349.852 573.138 349.745 573.138 349.639C573.138 349.532 573.138 349.404 573.138 349.255C573.138 348.231 573.415 347.377 573.97 346.695C574.546 345.991 575.346 345.468 576.37 345.127C577.394 344.764 578.567 344.583 579.89 344.583C581.298 344.583 582.471 344.785 583.41 345.191C584.37 345.596 585.085 346.172 585.554 346.919C586.045 347.665 586.29 348.561 586.29 349.607V358.727C586.29 359.132 586.386 359.42 586.578 359.591C586.77 359.74 587.005 359.815 587.282 359.815H588.53V361.671C588.231 361.799 587.901 361.905 587.538 361.991C587.175 362.097 586.759 362.151 586.29 362.151C585.735 362.151 585.277 362.033 584.914 361.799C584.551 361.585 584.274 361.287 584.082 360.903C583.89 360.497 583.762 360.049 583.698 359.559H583.474C583.09 360.092 582.599 360.561 582.002 360.967C581.426 361.351 580.775 361.649 580.05 361.863C579.325 362.076 578.535 362.183 577.682 362.183ZM578.386 359.815C579.069 359.815 579.709 359.708 580.306 359.495C580.925 359.281 581.469 358.983 581.938 358.599C582.407 358.193 582.781 357.713 583.058 357.159C583.335 356.604 583.474 355.996 583.474 355.335V353.927C581.746 353.927 580.274 354.023 579.058 354.215C577.842 354.407 576.903 354.748 576.242 355.239C575.602 355.729 575.282 356.423 575.282 357.319C575.282 357.895 575.41 358.364 575.666 358.727C575.922 359.089 576.285 359.367 576.754 359.559C577.223 359.729 577.767 359.815 578.386 359.815ZM594.832 362.183C593.957 362.183 593.274 362.023 592.784 361.703C592.293 361.361 591.941 360.924 591.728 360.391C591.514 359.836 591.408 359.249 591.408 358.631V347.335H589.232V344.967H591.472L591.984 340.263H594.224V344.967H597.392V347.335H594.224V358.215C594.224 358.748 594.32 359.153 594.512 359.431C594.704 359.687 595.066 359.815 595.6 359.815H597.392V361.671C597.178 361.777 596.922 361.863 596.624 361.927C596.325 361.991 596.016 362.044 595.696 362.087C595.397 362.151 595.109 362.183 594.832 362.183ZM607.116 362.183C605.452 362.183 604.044 361.873 602.891 361.255C601.761 360.615 600.897 359.644 600.299 358.343C599.724 357.041 599.436 355.388 599.436 353.383C599.436 351.356 599.724 349.703 600.299 348.423C600.897 347.121 601.772 346.161 602.924 345.543C604.076 344.903 605.516 344.583 607.244 344.583C608.822 344.583 610.145 344.892 611.212 345.511C612.278 346.108 613.078 347.015 613.612 348.231C614.166 349.425 614.444 350.929 614.444 352.743V354.087H602.348C602.39 355.431 602.582 356.54 602.924 357.415C603.286 358.268 603.82 358.897 604.524 359.303C605.228 359.687 606.113 359.879 607.18 359.879C607.905 359.879 608.534 359.793 609.068 359.623C609.622 359.431 610.081 359.164 610.444 358.823C610.828 358.481 611.116 358.076 611.308 357.607C611.5 357.137 611.606 356.625 611.628 356.071H614.38C614.358 356.967 614.188 357.799 613.868 358.567C613.548 359.313 613.078 359.953 612.46 360.487C611.841 361.02 611.084 361.436 610.188 361.735C609.292 362.033 608.268 362.183 607.116 362.183ZM602.411 351.975H611.532C611.532 351.036 611.425 350.247 611.212 349.607C610.998 348.967 610.689 348.444 610.284 348.039C609.9 347.633 609.441 347.345 608.908 347.175C608.396 346.983 607.809 346.887 607.148 346.887C606.166 346.887 605.334 347.068 604.652 347.431C603.969 347.793 603.446 348.348 603.084 349.095C602.721 349.841 602.497 350.801 602.411 351.975ZM623.815 362.183C622.663 362.183 621.649 362.065 620.775 361.831C619.9 361.596 619.175 361.255 618.599 360.807C618.023 360.359 617.585 359.825 617.287 359.207C616.988 358.588 616.839 357.884 616.839 357.095C616.839 356.988 616.839 356.892 616.839 356.807C616.839 356.7 616.849 356.615 616.871 356.551H619.655C619.633 356.636 619.623 356.711 619.623 356.775C619.623 356.839 619.623 356.903 619.623 356.967C619.644 357.713 619.836 358.3 620.199 358.727C620.583 359.153 621.105 359.452 621.767 359.623C622.428 359.793 623.164 359.879 623.975 359.879C624.679 359.879 625.329 359.793 625.927 359.623C626.524 359.431 626.993 359.153 627.335 358.791C627.697 358.407 627.879 357.927 627.879 357.351C627.879 356.647 627.644 356.113 627.175 355.751C626.727 355.367 626.129 355.068 625.383 354.855C624.636 354.641 623.857 354.417 623.047 354.183C622.364 353.991 621.681 353.777 620.999 353.543C620.316 353.308 619.697 353.02 619.143 352.679C618.609 352.337 618.172 351.9 617.831 351.367C617.511 350.812 617.351 350.119 617.351 349.287C617.351 348.54 617.5 347.879 617.799 347.303C618.119 346.727 618.567 346.236 619.143 345.831C619.719 345.425 620.412 345.127 621.223 344.935C622.055 344.721 622.972 344.615 623.975 344.615C625.041 344.615 625.969 344.732 626.759 344.967C627.569 345.201 628.241 345.532 628.775 345.959C629.308 346.385 629.703 346.876 629.959 347.431C630.215 347.964 630.343 348.54 630.343 349.159C630.343 349.287 630.343 349.415 630.343 349.543C630.343 349.649 630.332 349.735 630.311 349.799H627.559V349.447C627.559 349.02 627.441 348.615 627.207 348.231C626.993 347.825 626.609 347.505 626.055 347.271C625.521 347.015 624.775 346.887 623.815 346.887C623.196 346.887 622.663 346.94 622.215 347.047C621.767 347.132 621.393 347.281 621.095 347.495C620.796 347.687 620.572 347.921 620.423 348.199C620.273 348.455 620.199 348.753 620.199 349.095C620.199 349.649 620.38 350.076 620.743 350.375C621.105 350.673 621.585 350.919 622.183 351.111C622.801 351.303 623.463 351.516 624.167 351.751C624.913 351.964 625.671 352.188 626.439 352.423C627.228 352.636 627.943 352.913 628.583 353.255C629.244 353.596 629.767 354.065 630.151 354.663C630.556 355.239 630.759 356.007 630.759 356.967C630.759 357.863 630.588 358.641 630.247 359.303C629.905 359.964 629.415 360.508 628.775 360.935C628.156 361.361 627.42 361.671 626.567 361.863C625.735 362.076 624.817 362.183 623.815 362.183ZM641.471 361.799V339.847H644.511V361.799H641.471ZM649.458 361.799V344.967H651.73L651.986 347.495H652.21C652.658 346.812 653.159 346.257 653.714 345.831C654.29 345.404 654.919 345.095 655.602 344.903C656.306 344.689 657.053 344.583 657.842 344.583C658.909 344.583 659.837 344.764 660.626 345.127C661.437 345.489 662.066 346.076 662.514 346.887C662.983 347.697 663.218 348.796 663.218 350.183V361.799H660.402V350.567C660.402 349.863 660.306 349.287 660.114 348.839C659.943 348.391 659.698 348.039 659.378 347.783C659.079 347.527 658.706 347.345 658.258 347.239C657.831 347.132 657.351 347.079 656.818 347.079C656.029 347.079 655.282 347.271 654.578 347.655C653.874 348.039 653.309 348.593 652.882 349.319C652.477 350.044 652.274 350.908 652.274 351.911V361.799H649.458ZM673.377 362.183C672.225 362.183 671.212 362.065 670.337 361.831C669.463 361.596 668.737 361.255 668.161 360.807C667.585 360.359 667.148 359.825 666.849 359.207C666.551 358.588 666.401 357.884 666.401 357.095C666.401 356.988 666.401 356.892 666.401 356.807C666.401 356.7 666.412 356.615 666.433 356.551H669.217C669.196 356.636 669.185 356.711 669.185 356.775C669.185 356.839 669.185 356.903 669.185 356.967C669.207 357.713 669.399 358.3 669.761 358.727C670.145 359.153 670.668 359.452 671.329 359.623C671.991 359.793 672.727 359.879 673.537 359.879C674.241 359.879 674.892 359.793 675.489 359.623C676.087 359.431 676.556 359.153 676.897 358.791C677.26 358.407 677.441 357.927 677.441 357.351C677.441 356.647 677.207 356.113 676.737 355.751C676.289 355.367 675.692 355.068 674.945 354.855C674.199 354.641 673.42 354.417 672.609 354.183C671.927 353.991 671.244 353.777 670.561 353.543C669.879 353.308 669.26 353.02 668.705 352.679C668.172 352.337 667.735 351.9 667.393 351.367C667.073 350.812 666.913 350.119 666.913 349.287C666.913 348.54 667.063 347.879 667.361 347.303C667.681 346.727 668.129 346.236 668.705 345.831C669.281 345.425 669.975 345.127 670.785 344.935C671.617 344.721 672.535 344.615 673.537 344.615C674.604 344.615 675.532 344.732 676.321 344.967C677.132 345.201 677.804 345.532 678.337 345.959C678.871 346.385 679.265 346.876 679.521 347.431C679.777 347.964 679.905 348.54 679.905 349.159C679.905 349.287 679.905 349.415 679.905 349.543C679.905 349.649 679.895 349.735 679.873 349.799H677.121V349.447C677.121 349.02 677.004 348.615 676.769 348.231C676.556 347.825 676.172 347.505 675.617 347.271C675.084 347.015 674.337 346.887 673.377 346.887C672.759 346.887 672.225 346.94 671.777 347.047C671.329 347.132 670.956 347.281 670.657 347.495C670.359 347.687 670.135 347.921 669.985 348.199C669.836 348.455 669.761 348.753 669.761 349.095C669.761 349.649 669.943 350.076 670.305 350.375C670.668 350.673 671.148 350.919 671.745 351.111C672.364 351.303 673.025 351.516 673.729 351.751C674.476 351.964 675.233 352.188 676.001 352.423C676.791 352.636 677.505 352.913 678.145 353.255C678.807 353.596 679.329 354.065 679.713 354.663C680.119 355.239 680.321 356.007 680.321 356.967C680.321 357.863 680.151 358.641 679.809 359.303C679.468 359.964 678.977 360.508 678.337 360.935C677.719 361.361 676.983 361.671 676.129 361.863C675.297 362.076 674.38 362.183 673.377 362.183ZM688.026 362.183C687.407 362.183 686.788 362.108 686.17 361.959C685.551 361.809 684.975 361.564 684.442 361.223C683.908 360.881 683.482 360.412 683.162 359.815C682.842 359.196 682.682 358.428 682.682 357.511C682.682 356.359 682.959 355.409 683.514 354.663C684.068 353.916 684.836 353.34 685.818 352.935C686.82 352.508 688.004 352.22 689.37 352.071C690.735 351.9 692.218 351.815 693.818 351.815V349.895C693.818 349.276 693.711 348.743 693.498 348.295C693.284 347.847 692.9 347.505 692.346 347.271C691.812 347.015 691.044 346.887 690.042 346.887C689.082 346.887 688.314 347.015 687.738 347.271C687.183 347.505 686.788 347.815 686.554 348.199C686.34 348.583 686.234 349.009 686.234 349.479V349.959H683.514C683.492 349.852 683.482 349.745 683.482 349.639C683.482 349.532 683.482 349.404 683.482 349.255C683.482 348.231 683.759 347.377 684.314 346.695C684.89 345.991 685.69 345.468 686.714 345.127C687.738 344.764 688.911 344.583 690.234 344.583C691.642 344.583 692.815 344.785 693.754 345.191C694.714 345.596 695.428 346.172 695.898 346.919C696.388 347.665 696.634 348.561 696.634 349.607V358.727C696.634 359.132 696.73 359.42 696.922 359.591C697.114 359.74 697.348 359.815 697.626 359.815H698.874V361.671C698.575 361.799 698.244 361.905 697.882 361.991C697.519 362.097 697.103 362.151 696.634 362.151C696.079 362.151 695.62 362.033 695.258 361.799C694.895 361.585 694.618 361.287 694.426 360.903C694.234 360.497 694.106 360.049 694.042 359.559H693.818C693.434 360.092 692.943 360.561 692.346 360.967C691.77 361.351 691.119 361.649 690.394 361.863C689.668 362.076 688.879 362.183 688.026 362.183ZM688.73 359.815C689.412 359.815 690.052 359.708 690.65 359.495C691.268 359.281 691.812 358.983 692.282 358.599C692.751 358.193 693.124 357.713 693.402 357.159C693.679 356.604 693.818 355.996 693.818 355.335V353.927C692.09 353.927 690.618 354.023 689.402 354.215C688.186 354.407 687.247 354.748 686.586 355.239C685.946 355.729 685.626 356.423 685.626 357.319C685.626 357.895 685.754 358.364 686.01 358.727C686.266 359.089 686.628 359.367 687.098 359.559C687.567 359.729 688.111 359.815 688.73 359.815ZM701.239 361.799V344.967H703.511L703.767 347.495H703.991C704.439 346.812 704.941 346.257 705.495 345.831C706.071 345.404 706.701 345.095 707.383 344.903C708.087 344.689 708.834 344.583 709.623 344.583C710.69 344.583 711.618 344.764 712.407 345.127C713.218 345.489 713.847 346.076 714.295 346.887C714.765 347.697 714.999 348.796 714.999 350.183V361.799H712.183V350.567C712.183 349.863 712.087 349.287 711.895 348.839C711.725 348.391 711.479 348.039 711.159 347.783C710.861 347.527 710.487 347.345 710.039 347.239C709.613 347.132 709.133 347.079 708.599 347.079C707.81 347.079 707.063 347.271 706.359 347.655C705.655 348.039 705.09 348.593 704.663 349.319C704.258 350.044 704.055 350.908 704.055 351.911V361.799H701.239ZM720.711 367.623C720.199 367.623 719.751 367.58 719.367 367.495C719.004 367.431 718.759 367.388 718.631 367.367V365.319H720.039C720.551 365.319 721.052 365.212 721.543 364.999C722.033 364.785 722.492 364.423 722.919 363.911C723.345 363.399 723.708 362.695 724.007 361.799L717.479 344.967H720.423L723.783 353.639C723.932 354.044 724.103 354.545 724.295 355.143C724.508 355.719 724.711 356.316 724.903 356.935C725.116 357.553 725.287 358.097 725.415 358.567H725.607C725.692 358.225 725.799 357.841 725.927 357.415C726.055 356.988 726.183 356.551 726.311 356.103C726.46 355.633 726.599 355.196 726.727 354.791C726.876 354.364 726.993 353.991 727.079 353.671L729.927 344.967H732.775L727.079 361.319C726.759 362.236 726.407 363.079 726.023 363.847C725.639 364.636 725.212 365.308 724.743 365.863C724.273 366.417 723.708 366.844 723.047 367.143C722.385 367.463 721.607 367.623 720.711 367.623Z" fill="#EFF0F4"/>
<rect x="537.124" y="193" width="40.8644" height="81.7287" rx="3" fill="#624DE3"/>
<rect x="487.221" y="237.085" width="34.4232" height="34.4232" stroke="#624DE3" stroke-width="6.44114"/>
<path d="M632.779 256.149C630.338 256.149 627.984 255.909 625.718 255.43C623.495 254.95 621.511 254.187 619.768 253.141C618.024 252.052 616.629 250.657 615.583 248.957C614.581 247.257 614.079 245.165 614.079 242.68C614.079 242.462 614.079 242.244 614.079 242.026C614.123 241.808 614.145 241.59 614.145 241.372H620.422C620.422 241.503 620.4 241.721 620.356 242.026C620.356 242.288 620.356 242.527 620.356 242.745C620.356 244.489 620.879 245.971 621.925 247.191C622.972 248.412 624.41 249.327 626.241 249.938C628.115 250.504 630.229 250.788 632.583 250.788C633.629 250.788 634.719 250.722 635.852 250.591C637.029 250.461 638.14 250.243 639.187 249.938C640.276 249.589 641.235 249.153 642.063 248.63C642.935 248.063 643.611 247.388 644.09 246.603C644.613 245.775 644.875 244.772 644.875 243.595C644.875 242.113 644.439 240.893 643.567 239.934C642.739 238.931 641.627 238.125 640.233 237.515C638.838 236.861 637.247 236.294 635.46 235.815C633.716 235.292 631.907 234.791 630.033 234.311C628.159 233.832 626.328 233.287 624.541 232.676C622.797 232.023 621.228 231.238 619.833 230.323C618.438 229.364 617.305 228.187 616.433 226.792C615.605 225.397 615.191 223.697 615.191 221.692C615.191 219.818 615.561 218.14 616.302 216.658C617.087 215.176 618.22 213.933 619.702 212.931C621.228 211.885 623.102 211.1 625.325 210.577C627.548 210.01 630.098 209.727 632.975 209.727C635.329 209.727 637.508 209.989 639.513 210.512C641.562 210.991 643.349 211.754 644.875 212.8C646.444 213.803 647.664 215.088 648.536 216.658C649.408 218.227 649.844 220.123 649.844 222.346V223.131H643.698V222.15C643.698 220.668 643.24 219.404 642.325 218.358C641.41 217.311 640.145 216.505 638.533 215.938C636.963 215.372 635.176 215.088 633.171 215.088C630.556 215.088 628.377 215.35 626.633 215.873C624.889 216.352 623.582 217.072 622.71 218.031C621.882 218.946 621.468 219.992 621.468 221.169C621.468 222.52 621.882 223.654 622.71 224.569C623.582 225.484 624.715 226.247 626.11 226.857C627.505 227.424 629.096 227.947 630.883 228.427C632.67 228.906 634.479 229.407 636.31 229.93C638.184 230.41 639.993 230.976 641.736 231.63C643.524 232.241 645.115 233.025 646.509 233.984C647.948 234.899 649.081 236.076 649.909 237.515C650.737 238.91 651.152 240.631 651.152 242.68C651.152 245.862 650.367 248.456 648.798 250.461C647.229 252.422 645.071 253.861 642.325 254.776C639.579 255.691 636.397 256.149 632.779 256.149ZM660.165 255.364V220.973H664.807L665.33 226.138H665.788C666.659 224.743 667.64 223.61 668.73 222.738C669.82 221.866 671.018 221.234 672.326 220.842C673.634 220.406 675.05 220.188 676.576 220.188C678.799 220.188 680.717 220.646 682.33 221.561C683.942 222.433 685.141 223.959 685.926 226.138H686.318C687.146 224.743 688.105 223.632 689.195 222.804C690.285 221.932 691.505 221.278 692.856 220.842C694.207 220.406 695.646 220.188 697.172 220.188C699.264 220.188 701.094 220.559 702.664 221.3C704.233 221.997 705.453 223.174 706.325 224.83C707.24 226.443 707.698 228.623 707.698 231.369V255.364H701.944V232.284C701.944 230.889 701.77 229.734 701.421 228.819C701.116 227.903 700.659 227.206 700.048 226.727C699.438 226.204 698.719 225.833 697.891 225.615C697.106 225.397 696.256 225.288 695.341 225.288C693.815 225.288 692.399 225.68 691.091 226.465C689.827 227.25 688.802 228.383 688.018 229.865C687.233 231.347 686.841 233.112 686.841 235.161V255.364H681.087V232.284C681.087 230.889 680.913 229.734 680.564 228.819C680.216 227.903 679.758 227.206 679.191 226.727C678.625 226.204 677.927 225.833 677.099 225.615C676.314 225.397 675.486 225.288 674.614 225.288C673.045 225.288 671.585 225.68 670.234 226.465C668.926 227.25 667.88 228.383 667.095 229.865C666.311 231.347 665.918 233.112 665.918 235.161V255.364H660.165ZM726.028 256.149C724.764 256.149 723.5 255.996 722.236 255.691C720.972 255.386 719.795 254.885 718.705 254.187C717.616 253.49 716.744 252.531 716.09 251.311C715.436 250.047 715.109 248.477 715.109 246.603C715.109 244.249 715.676 242.31 716.809 240.784C717.943 239.258 719.512 238.081 721.517 237.253C723.566 236.381 725.985 235.793 728.774 235.488C731.564 235.139 734.594 234.965 737.863 234.965V231.042C737.863 229.778 737.645 228.688 737.209 227.773C736.773 226.857 735.988 226.16 734.855 225.68C733.765 225.157 732.196 224.896 730.148 224.896C728.186 224.896 726.617 225.157 725.44 225.68C724.307 226.16 723.5 226.792 723.021 227.577C722.585 228.361 722.367 229.233 722.367 230.192V231.173H716.809C716.766 230.955 716.744 230.737 716.744 230.519C716.744 230.301 716.744 230.039 716.744 229.734C716.744 227.642 717.311 225.898 718.444 224.504C719.621 223.065 721.255 221.997 723.348 221.3C725.44 220.559 727.837 220.188 730.54 220.188C733.417 220.188 735.814 220.602 737.732 221.431C739.693 222.259 741.154 223.436 742.113 224.961C743.115 226.487 743.616 228.318 743.616 230.453V249.088C743.616 249.916 743.813 250.504 744.205 250.853C744.597 251.158 745.077 251.311 745.643 251.311H748.193V255.103C747.583 255.364 746.907 255.582 746.166 255.757C745.425 255.975 744.575 256.084 743.616 256.084C742.483 256.084 741.546 255.844 740.805 255.364C740.064 254.928 739.497 254.318 739.105 253.534C738.713 252.705 738.451 251.79 738.32 250.788H737.863C737.078 251.877 736.076 252.836 734.855 253.664C733.678 254.449 732.349 255.059 730.867 255.495C729.385 255.931 727.772 256.149 726.028 256.149ZM727.467 251.311C728.862 251.311 730.169 251.093 731.39 250.657C732.654 250.221 733.765 249.611 734.724 248.826C735.683 247.998 736.446 247.017 737.013 245.884C737.579 244.751 737.863 243.508 737.863 242.157V239.28C734.332 239.28 731.324 239.476 728.84 239.869C726.355 240.261 724.437 240.958 723.086 241.961C721.779 242.963 721.125 244.38 721.125 246.211C721.125 247.388 721.386 248.347 721.909 249.088C722.432 249.829 723.173 250.395 724.132 250.788C725.091 251.136 726.203 251.311 727.467 251.311ZM754.007 255.364V220.973H758.649L759.172 226.661H759.63C759.979 225.572 760.458 224.547 761.069 223.588C761.679 222.586 762.507 221.779 763.553 221.169C764.599 220.515 765.885 220.188 767.411 220.188C768.065 220.188 768.653 220.254 769.176 220.384C769.743 220.472 770.157 220.581 770.418 220.711V226.007H768.261C766.779 226.007 765.493 226.269 764.403 226.792C763.357 227.271 762.485 227.969 761.788 228.884C761.09 229.8 760.567 230.889 760.219 232.153C759.913 233.417 759.761 234.769 759.761 236.207V255.364H754.007ZM784.739 256.149C782.952 256.149 781.557 255.822 780.555 255.168C779.552 254.471 778.833 253.577 778.397 252.487C777.961 251.354 777.743 250.156 777.743 248.891V225.811H773.297V220.973H777.874L778.92 211.362H783.497V220.973H789.97V225.811H783.497V248.041C783.497 249.131 783.693 249.959 784.085 250.526C784.478 251.049 785.219 251.311 786.308 251.311H789.97V255.103C789.534 255.321 789.011 255.495 788.401 255.626C787.79 255.757 787.158 255.866 786.505 255.953C785.894 256.084 785.306 256.149 784.739 256.149Z" fill="white"/>
<path d="M797.433 255.364V210.446H830.648C833.045 210.446 835.203 210.926 837.121 211.885C839.039 212.8 840.542 214.086 841.632 215.742C842.765 217.399 843.332 219.338 843.332 221.561C843.332 223.348 842.983 224.939 842.286 226.334C841.632 227.729 840.739 228.884 839.605 229.8C838.472 230.715 837.208 231.391 835.813 231.826V232.088C837.469 232.437 838.951 233.091 840.259 234.049C841.61 235.008 842.656 236.251 843.397 237.776C844.182 239.258 844.574 241.024 844.574 243.072C844.574 245.775 843.942 248.041 842.678 249.872C841.458 251.703 839.801 253.076 837.709 253.991C835.617 254.907 833.285 255.364 830.713 255.364H797.433ZM808.352 246.799H828.032C829.558 246.799 830.822 246.385 831.825 245.557C832.827 244.729 833.328 243.421 833.328 241.634C833.328 240.675 833.111 239.803 832.675 239.019C832.282 238.234 831.672 237.646 830.844 237.253C830.016 236.817 828.948 236.599 827.64 236.599H808.352V246.799ZM808.352 228.427H826.856C827.989 228.427 828.948 228.23 829.732 227.838C830.517 227.402 831.105 226.836 831.498 226.138C831.934 225.397 832.152 224.569 832.152 223.654C832.152 222.084 831.694 220.908 830.779 220.123C829.863 219.295 828.664 218.881 827.182 218.881H808.352V228.427ZM867.025 256.149C862.448 256.149 858.961 255.037 856.564 252.814C854.21 250.591 853.033 247.148 853.033 242.484V220.908H862.971V240.915C862.971 242.222 863.146 243.334 863.495 244.249C863.887 245.165 864.41 245.906 865.064 246.472C865.718 247.039 866.524 247.453 867.483 247.715C868.442 247.976 869.488 248.107 870.621 248.107C872.365 248.107 873.956 247.758 875.394 247.061C876.876 246.32 878.053 245.317 878.925 244.053C879.797 242.745 880.233 241.242 880.233 239.542V220.908H890.236V255.364H882.129L881.409 249.807H880.886C879.753 251.332 878.424 252.553 876.898 253.468C875.416 254.384 873.825 255.059 872.125 255.495C870.469 255.931 868.769 256.149 867.025 256.149ZM916.86 256.149C914.332 256.149 911.934 255.931 909.668 255.495C907.401 255.059 905.396 254.405 903.652 253.534C901.953 252.662 900.601 251.572 899.599 250.264C898.596 248.913 898.095 247.344 898.095 245.557C898.095 245.339 898.095 245.165 898.095 245.034C898.139 244.859 898.182 244.685 898.226 244.511H908.295C908.295 244.598 908.273 244.707 908.229 244.838C908.229 244.925 908.229 245.012 908.229 245.099C908.273 246.145 908.687 246.995 909.472 247.649C910.3 248.259 911.368 248.717 912.675 249.022C914.027 249.284 915.443 249.414 916.925 249.414C918.364 249.414 919.758 249.327 921.11 249.153C922.461 248.935 923.573 248.586 924.444 248.107C925.316 247.584 925.752 246.843 925.752 245.884C925.752 244.794 925.229 244.01 924.183 243.53C923.137 243.051 921.676 242.68 919.802 242.419C917.928 242.113 915.77 241.765 913.329 241.372C911.411 241.067 909.602 240.675 907.902 240.195C906.202 239.716 904.699 239.106 903.391 238.365C902.083 237.58 901.059 236.599 900.318 235.423C899.577 234.202 899.206 232.698 899.206 230.911C899.206 228.993 899.642 227.359 900.514 226.007C901.429 224.613 902.694 223.501 904.306 222.673C905.919 221.801 907.837 221.169 910.06 220.777C912.283 220.341 914.724 220.123 917.383 220.123C919.78 220.123 922.003 220.341 924.052 220.777C926.144 221.169 927.975 221.779 929.544 222.607C931.157 223.392 932.399 224.395 933.271 225.615C934.186 226.836 934.644 228.252 934.644 229.865C934.644 230.039 934.644 230.235 934.644 230.453C934.644 230.628 934.622 230.78 934.579 230.911H924.575V230.519C924.575 229.691 924.226 229.015 923.529 228.492C922.875 227.925 921.982 227.511 920.848 227.25C919.758 226.988 918.56 226.857 917.252 226.857C916.642 226.857 915.879 226.901 914.964 226.988C914.092 227.032 913.198 227.162 912.283 227.38C911.411 227.598 910.67 227.903 910.06 228.296C909.45 228.645 909.145 229.168 909.145 229.865C909.145 230.737 909.624 231.391 910.583 231.826C911.586 232.262 912.871 232.611 914.441 232.873C916.053 233.091 917.797 233.352 919.671 233.657C921.676 233.962 923.638 234.311 925.556 234.703C927.517 235.096 929.239 235.662 930.721 236.403C932.247 237.144 933.467 238.169 934.382 239.476C935.298 240.784 935.756 242.506 935.756 244.642C935.756 246.777 935.298 248.586 934.382 250.068C933.467 251.55 932.181 252.749 930.525 253.664C928.869 254.536 926.885 255.168 924.575 255.56C922.265 255.953 919.693 256.149 916.86 256.149ZM943.688 215.677V208.027H953.691V215.677H943.688ZM943.688 255.364V220.908H953.691V255.364H943.688ZM963.441 255.364V220.908H971.548L972.267 226.465H972.856C973.989 224.939 975.297 223.719 976.779 222.804C978.261 221.888 979.852 221.213 981.552 220.777C983.295 220.341 985.017 220.123 986.717 220.123C989.768 220.123 992.318 220.624 994.367 221.627C996.459 222.586 998.028 224.068 999.074 226.073C1000.12 228.078 1000.64 230.65 1000.64 233.788V255.364H990.705V235.357C990.705 234.049 990.531 232.938 990.182 232.023C989.834 231.107 989.31 230.366 988.613 229.8C987.959 229.233 987.153 228.819 986.194 228.557C985.279 228.296 984.232 228.165 983.056 228.165C981.312 228.165 979.699 228.536 978.217 229.277C976.779 229.974 975.624 230.976 974.752 232.284C973.88 233.548 973.444 235.03 973.444 236.73V255.364H963.441ZM1029.88 256.149C1025.52 256.149 1021.77 255.517 1018.64 254.253C1015.5 252.945 1013.08 250.962 1011.38 248.303C1009.68 245.644 1008.83 242.266 1008.83 238.169C1008.83 234.115 1009.66 230.759 1011.31 228.1C1012.97 225.397 1015.34 223.392 1018.44 222.084C1021.53 220.777 1025.22 220.123 1029.49 220.123C1033.89 220.123 1037.6 220.777 1040.6 222.084C1043.65 223.392 1045.94 225.332 1047.47 227.903C1049.04 230.475 1049.82 233.679 1049.82 237.515V240.392H1019.22C1019.31 242.397 1019.79 244.053 1020.66 245.361C1021.53 246.625 1022.75 247.562 1024.32 248.172C1025.94 248.739 1027.83 249.022 1030.01 249.022C1031.06 249.022 1032.13 248.913 1033.22 248.695C1034.31 248.434 1035.31 248.085 1036.22 247.649C1037.14 247.17 1037.9 246.581 1038.51 245.884C1039.12 245.143 1039.47 244.293 1039.56 243.334H1049.63C1049.63 245.252 1049.17 246.995 1048.25 248.565C1047.34 250.134 1046.01 251.485 1044.27 252.618C1042.52 253.752 1040.43 254.623 1037.99 255.234C1035.59 255.844 1032.89 256.149 1029.88 256.149ZM1019.22 234.311H1039.3C1039.3 233.134 1039.06 232.11 1038.58 231.238C1038.1 230.323 1037.42 229.582 1036.55 229.015C1035.68 228.448 1034.65 228.012 1033.48 227.707C1032.34 227.402 1031.1 227.25 1029.75 227.25C1027.7 227.25 1025.91 227.533 1024.39 228.1C1022.91 228.623 1021.73 229.429 1020.86 230.519C1019.99 231.565 1019.44 232.829 1019.22 234.311ZM1074.98 256.149C1072.45 256.149 1070.06 255.931 1067.79 255.495C1065.52 255.059 1063.52 254.405 1061.77 253.534C1060.07 252.662 1058.72 251.572 1057.72 250.264C1056.72 248.913 1056.22 247.344 1056.22 245.557C1056.22 245.339 1056.22 245.165 1056.22 245.034C1056.26 244.859 1056.3 244.685 1056.35 244.511H1066.42C1066.42 244.598 1066.4 244.707 1066.35 244.838C1066.35 244.925 1066.35 245.012 1066.35 245.099C1066.4 246.145 1066.81 246.995 1067.59 247.649C1068.42 248.259 1069.49 248.717 1070.8 249.022C1072.15 249.284 1073.57 249.414 1075.05 249.414C1076.49 249.414 1077.88 249.327 1079.23 249.153C1080.58 248.935 1081.69 248.586 1082.57 248.107C1083.44 247.584 1083.87 246.843 1083.87 245.884C1083.87 244.794 1083.35 244.01 1082.3 243.53C1081.26 243.051 1079.8 242.68 1077.92 242.419C1076.05 242.113 1073.89 241.765 1071.45 241.372C1069.53 241.067 1067.72 240.675 1066.02 240.195C1064.32 239.716 1062.82 239.106 1061.51 238.365C1060.21 237.58 1059.18 236.599 1058.44 235.423C1057.7 234.202 1057.33 232.698 1057.33 230.911C1057.33 228.993 1057.76 227.359 1058.64 226.007C1059.55 224.613 1060.82 223.501 1062.43 222.673C1064.04 221.801 1065.96 221.169 1068.18 220.777C1070.41 220.341 1072.85 220.123 1075.51 220.123C1077.9 220.123 1080.13 220.341 1082.17 220.777C1084.27 221.169 1086.1 221.779 1087.67 222.607C1089.28 223.392 1090.52 224.395 1091.39 225.615C1092.31 226.836 1092.77 228.252 1092.77 229.865C1092.77 230.039 1092.77 230.235 1092.77 230.453C1092.77 230.628 1092.74 230.78 1092.7 230.911H1082.7V230.519C1082.7 229.691 1082.35 229.015 1081.65 228.492C1081 227.925 1080.1 227.511 1078.97 227.25C1077.88 226.988 1076.68 226.857 1075.37 226.857C1074.76 226.857 1074 226.901 1073.09 226.988C1072.21 227.032 1071.32 227.162 1070.41 227.38C1069.53 227.598 1068.79 227.903 1068.18 228.296C1067.57 228.645 1067.27 229.168 1067.27 229.865C1067.27 230.737 1067.75 231.391 1068.71 231.826C1069.71 232.262 1070.99 232.611 1072.56 232.873C1074.18 233.091 1075.92 233.352 1077.79 233.657C1079.8 233.962 1081.76 234.311 1083.68 234.703C1085.64 235.096 1087.36 235.662 1088.84 236.403C1090.37 237.144 1091.59 238.169 1092.5 239.476C1093.42 240.784 1093.88 242.506 1093.88 244.642C1093.88 246.777 1093.42 248.586 1092.5 250.068C1091.59 251.55 1090.3 252.749 1088.65 253.664C1086.99 254.536 1085.01 255.168 1082.7 255.56C1080.39 255.953 1077.82 256.149 1074.98 256.149ZM1118.68 256.149C1116.15 256.149 1113.75 255.931 1111.49 255.495C1109.22 255.059 1107.21 254.405 1105.47 253.534C1103.77 252.662 1102.42 251.572 1101.42 250.264C1100.42 248.913 1099.91 247.344 1099.91 245.557C1099.91 245.339 1099.91 245.165 1099.91 245.034C1099.96 244.859 1100 244.685 1100.04 244.511H1110.11C1110.11 244.598 1110.09 244.707 1110.05 244.838C1110.05 244.925 1110.05 245.012 1110.05 245.099C1110.09 246.145 1110.51 246.995 1111.29 247.649C1112.12 248.259 1113.19 248.717 1114.49 249.022C1115.85 249.284 1117.26 249.414 1118.74 249.414C1120.18 249.414 1121.58 249.327 1122.93 249.153C1124.28 248.935 1125.39 248.586 1126.26 248.107C1127.13 247.584 1127.57 246.843 1127.57 245.884C1127.57 244.794 1127.05 244.01 1126 243.53C1124.96 243.051 1123.5 242.68 1121.62 242.419C1119.75 242.113 1117.59 241.765 1115.15 241.372C1113.23 241.067 1111.42 240.675 1109.72 240.195C1108.02 239.716 1106.52 239.106 1105.21 238.365C1103.9 237.58 1102.88 236.599 1102.14 235.423C1101.4 234.202 1101.03 232.698 1101.03 230.911C1101.03 228.993 1101.46 227.359 1102.33 226.007C1103.25 224.613 1104.51 223.501 1106.13 222.673C1107.74 221.801 1109.66 221.169 1111.88 220.777C1114.1 220.341 1116.54 220.123 1119.2 220.123C1121.6 220.123 1123.82 220.341 1125.87 220.777C1127.96 221.169 1129.79 221.779 1131.36 222.607C1132.98 223.392 1134.22 224.395 1135.09 225.615C1136.01 226.836 1136.46 228.252 1136.46 229.865C1136.46 230.039 1136.46 230.235 1136.46 230.453C1136.46 230.628 1136.44 230.78 1136.4 230.911H1126.39V230.519C1126.39 229.691 1126.05 229.015 1125.35 228.492C1124.69 227.925 1123.8 227.511 1122.67 227.25C1121.58 226.988 1120.38 226.857 1119.07 226.857C1118.46 226.857 1117.7 226.901 1116.78 226.988C1115.91 227.032 1115.02 227.162 1114.1 227.38C1113.23 227.598 1112.49 227.903 1111.88 228.296C1111.27 228.645 1110.96 229.168 1110.96 229.865C1110.96 230.737 1111.44 231.391 1112.4 231.826C1113.4 232.262 1114.69 232.611 1116.26 232.873C1117.87 233.091 1119.62 233.352 1121.49 233.657C1123.5 233.962 1125.46 234.311 1127.37 234.703C1129.34 235.096 1131.06 235.662 1132.54 236.403C1134.07 237.144 1135.29 238.169 1136.2 239.476C1137.12 240.784 1137.57 242.506 1137.57 244.642C1137.57 246.777 1137.12 248.586 1136.2 250.068C1135.29 251.55 1134 252.749 1132.34 253.664C1130.69 254.536 1128.7 255.168 1126.39 255.56C1124.08 255.953 1121.51 256.149 1118.68 256.149Z" fill="white"/>
<rect width="366" height="720" fill="#624DE3"/>
<mask id="mask0_902_302" style="mask-type:alpha" maskUnits="userSpaceOnUse" x="0" y="0" width="366" height="720">
<rect width="366" height="720" fill="#BFBAFE"/>
</mask>
<g mask="url(#mask0_902_302)">
<path opacity="0.8" fill-rule="evenodd" clip-rule="evenodd" d="M407.747 93.0955L250.253 93.0955L250.253 249.904L407.747 249.904L407.747 93.0955ZM214 57L214 286L444 286L444 57L214 57Z" fill="#4938C3"/>
<path opacity="0.8" d="M214 463L443 463L443 922L214 922L214 463Z" fill="#4938C3"/>
<path opacity="0.8" fill-rule="evenodd" clip-rule="evenodd" d="M114.904 614.096L-41.9045 614.096L-41.9045 770.904L114.904 770.904L114.904 614.096ZM-78 578L-78 807L151 807L151 578L-78 578Z" fill="#4938C3"/>
<path opacity="0.8" d="M-78 -58L152 -58L152 401L-78 401L-78 -58Z" fill="#4938C3"/>
</g>
<path d="M516.278 619.67L509.612 626.335L516.278 633L522.943 626.335L516.278 619.67Z" fill="#BFBAFE"/>
<path d="M530.629 632.999H548.558L525.863 593H507.925L515.491 606.335H499.095L484 632.999H501.929L516.267 607.693L530.629 632.999Z" fill="white"/>
</g>
<defs>
<clipPath id="clip0_902_302">
<rect width="1280" height="720" fill="white"/>
</clipPath>
</defs>
</svg>
